<svg xmlns="http://www.w3.org/2000/svg" width="138" height="44.89"><path d="M72.9 40.88v3.62h.94v-3.62a2.94 2.94 0 0 1 .64-2.04 2.42 2.42 0 0 1 1.87-.72v-.93a3.3 3.3 0 0 0-2.5.98 3.63 3.63 0 0 0-.94 2.71Zm5.32-.47a2.5 2.5 0 0 1 .81-1.7 3.37 3.37 0 0 1 3.83 0 2.38 2.38 0 0 1 .8 1.7Zm2.72-3.27a3.67 3.67 0 0 0-2.72.98 3.74 3.74 0 0 0-.98 2.72 3.25 3.25 0 0 0 0 .65 3.4 3.4 0 0 0 3.7 3.05 3.61 3.61 0 0 0 2.68-.93l-.68-.68a2.65 2.65 0 0 1-2 .68 2.94 2.94 0 0 1-1.91-.6 2.48 2.48 0 0 1-.8-1.7h5.94a.26.26 0 0 0 .07 0 .44.44 0 0 0 .4-.47 3.74 3.74 0 0 0-.98-2.72 3.67 3.67 0 0 0-2.72-.98Zm8.29 6.55a2.68 2.68 0 0 1-.34 0 2.77 2.77 0 0 1 .34-5.53 3 3 0 0 1 1.83.51l.55-.76a3.86 3.86 0 0 0-2.38-.72 3.76 3.76 0 0 0-.4 0 3.7 3.7 0 1 0 .4 7.4 4.46 4.46 0 0 0 1.53-.26 3.98 3.98 0 0 0 1.15-.72l-.64-.6a2.82 2.82 0 0 1-2.04.68Zm4.55-3.28a2.5 2.5 0 0 1 .8-1.7 3.37 3.37 0 0 1 3.84 0 2.4 2.4 0 0 1 .8 1.7Zm2.72-3.27a3.67 3.67 0 0 0-2.72.98 3.74 3.74 0 0 0-.98 2.72 3.24 3.24 0 0 0 0 .65 3.39 3.39 0 0 0 3.7 3.05 3.61 3.61 0 0 0 2.68-.93l-.68-.68a2.65 2.65 0 0 1-2 .68 2.94 2.94 0 0 1-1.91-.6 2.48 2.48 0 0 1-.81-1.7h5.95a.26.26 0 0 0 .06 0 .44.44 0 0 0 .41-.47 3.72 3.72 0 0 0-.98-2.72 3.67 3.67 0 0 0-2.72-.98Zm9.3 6.82a3.2 3.2 0 0 1-2.36-.83 2.93 2.93 0 0 1 3.45-4.65 2.95 2.95 0 0 1 1.5 2.28 2.91 2.91 0 0 1-2.59 3.2Zm3.54-3.1a3.22 3.22 0 0 0-.17-1 3.78 3.78 0 0 0-3.56-2.64 3.94 3.94 0 0 0-2.09.55 3.67 3.67 0 0 0-.94.8v-4.61h-.93v7.23a3.85 3.85 0 0 0 7.7-.3Zm1.4-4.36h.81l1.02-1.78h-1.1Zm0 .81h.94v7.18h-.94zm5.92 5.61-2.51-5.6h-1.02l3.1 6.96a.41.41 0 0 0 .42.3.64.64 0 0 0 .25-.08.43.43 0 0 0 .17-.21l3.1-6.98h-1.02Zm5.44-2.51a2.48 2.48 0 0 1 .8-1.7 3.37 3.37 0 0 1 3.83 0 2.4 2.4 0 0 1 .8 1.7Zm2.72-3.27a3.66 3.66 0 0 0-2.72.98 3.74 3.74 0 0 0-.98 2.72 3.25 3.25 0 0 0 0 .65 3.4 3.4 0 0 0 3.7 3.05 3.61 3.61 0 0 0 2.68-.93l-.68-.68a2.65 2.65 0 0 1-2 .68 2.94 2.94 0 0 1-1.92-.6 2.48 2.48 0 0 1-.8-1.7h5.95a.26.26 0 0 0 .06 0 .44.44 0 0 0 .4-.47 3.72 3.72 0 0 0-.97-2.72 3.67 3.67 0 0 0-2.72-.98Zm5.44-1.91h.94v1.27h-.94zm-.04 2.08h.94v7.18h-.94zm6.98 3.66a3 3 0 0 0-.86-.34 6.92 6.92 0 0 0-.9-.21 9.65 9.65 0 0 0-1-.21 2.28 2.28 0 0 1-.56-.26.57.57 0 0 1-.25-.3.9.9 0 0 1-.04-.38 1.23 1.23 0 0 1 .17-.6 1.68 1.68 0 0 1 .42-.34 2.1 2.1 0 0 1 .55-.17 4.25 4.25 0 0 1 1.19 0 2.07 2.07 0 0 1 .55.17 1.68 1.68 0 0 1 .43.34.9.9 0 0 1 .17.6h.93a1.9 1.9 0 0 0-.72-1.54 3.74 3.74 0 0 0-3.91 0 1.9 1.9 0 0 0-.73 1.54 1.62 1.62 0 0 0 .21.93 1.33 1.33 0 0 0 .6.6 5.05 5.05 0 0 0 .85.34 6.93 6.93 0 0 0 .9.21c.38.09.68.13.93.21a1.67 1.67 0 0 1 .55.22.5.5 0 0 1 .3.3 1.2 1.2 0 0 1 .09.42.83.83 0 0 1-.17.6 1.68 1.68 0 0 1-.42.34 2.1 2.1 0 0 1-.56.17 4.25 4.25 0 0 1-1.19 0 2.08 2.08 0 0 1-.55-.17.83.83 0 0 1-.42-.34.9.9 0 0 1-.17-.6h-.94a1.9 1.9 0 0 0 .73 1.53 3.74 3.74 0 0 0 3.9 0 1.89 1.89 0 0 0 .73-1.53 1.62 1.62 0 0 0-.82-1.53ZM38.32 13.28a4.8 4.8 0 0 0-1.86-.93 12.14 12.14 0 0 0-2.72-.26 5.24 5.24 0 0 0-2.72.64 6.3 6.3 0 0 0-1.86 1.65 7.18 7.18 0 0 0-1.1 2.21 8.93 8.93 0 0 0-.38 2.63 7.76 7.76 0 0 0 1.4 4.71 4.7 4.7 0 0 0 4.07 1.87 4.85 4.85 0 0 0 2.42-.55 4.31 4.31 0 0 0 1.61-1.4 5.06 5.06 0 0 0 .9-1.87 8.05 8.05 0 0 0 .3-1.95v-6.75Zm0 14.39c-.3.3-.63.64-1.01.98a6.95 6.95 0 0 1-1.45.93 10.25 10.25 0 0 1-1.82.72 9.35 9.35 0 0 1-2.3.3 8.68 8.68 0 0 1-3.51-.77 9.23 9.23 0 0 1-3.1-2.2 11.54 11.54 0 0 1-2.2-3.56 13.11 13.11 0 0 1-.86-4.84 12.17 12.17 0 0 1 2.63-7.85 8.5 8.5 0 0 1 2.08-1.87 12.16 12.16 0 0 1 2.3-1.23 12.64 12.64 0 0 1 2.24-.72 11.46 11.46 0 0 1 1.87-.21c.72 0 1.32.04 1.78.08s.9.13 1.28.17a5.89 5.89 0 0 1 1.01.3c.3.13.68.26 1.07.43V0h5.52v30.6h-5.52ZM46.34 0h5.73v6.03h-5.73zm0 7.38h5.73V30.6h-5.73zm30.3 0h5.65v3.06a8.09 8.09 0 0 1 1.06-1.02 9.52 9.52 0 0 1 1.44-.98 9.82 9.82 0 0 1 1.91-.76 8.56 8.56 0 0 1 2.42-.3 8.16 8.16 0 0 1 6.5 2.55 10.09 10.09 0 0 1 2.24 6.87v13.84H92.1V16.8a4.44 4.44 0 0 0-1.19-3.35 4.16 4.16 0 0 0-3.1-1.19 5.37 5.37 0 0 0-2.16.47A4.76 4.76 0 0 0 83.9 14a7.24 7.24 0 0 0-1.15 1.91 7.15 7.15 0 0 0-.42 2.34v12.3H76.6V7.38Zm23.76-.08V0h5.7v7.3h6.06v4.63h-6.07v9.84a5.84 5.84 0 0 0 .64 2.97 2.3 2.3 0 0 0 2.08 1.02 4.84 4.84 0 0 0 2.12-.38 9.95 9.95 0 0 0 1.53-.93l1.74 4.03a6.5 6.5 0 0 1-2.67 1.48 10.96 10.96 0 0 1-3.65.6 9.68 9.68 0 0 1-3.52-.6 5.68 5.68 0 0 1-2.34-1.7 6.52 6.52 0 0 1-1.27-2.67 14.62 14.62 0 0 1-.38-3.44V11.93m31.65 4.87a5.04 5.04 0 0 0-.34-1.74 4.63 4.63 0 0 0-.97-1.57 4.8 4.8 0 0 0-1.66-1.14 5.71 5.71 0 0 0-2.33-.47 6.6 6.6 0 0 0-2.5.47 6.06 6.06 0 0 0-1.83 1.14 5 5 0 0 0-1.1 1.57 4.27 4.27 0 0 0-.38 1.74Zm5.6 10.49-.8.8a10.07 10.07 0 0 1-1.91 1.4 14.98 14.98 0 0 1-3.14 1.32 16.05 16.05 0 0 1-4.59.6 12.47 12.47 0 0 1-4.96-.93 10.81 10.81 0 0 1-6.24-6.45 14.6 14.6 0 0 1-.85-5.05 12.87 12.87 0 0 1 .85-4.67 11.65 11.65 0 0 1 2.37-3.78 11 11 0 0 1 3.65-2.5 11.9 11.9 0 0 1 4.67-.93 11.09 11.09 0 0 1 5.26 1.15 9.89 9.89 0 0 1 3.48 2.97 12.85 12.85 0 0 1 1.91 4.16 19.97 19.97 0 0 1 .6 4.75v.8h-16.98a4.56 4.56 0 0 0 .55 2.29 5.77 5.77 0 0 0 1.45 1.74 6.73 6.73 0 0 0 2.03 1.1 7.09 7.09 0 0 0 2.25.38 11.66 11.66 0 0 0 2.89-.3 15.46 15.46 0 0 0 2.12-.72 5.2 5.2 0 0 0 1.44-.9 8.45 8.45 0 0 0 .85-.76ZM68.88 22.2a2.9 2.9 0 0 1-.42 1.57 4.84 4.84 0 0 1-1.15 1.31 5.46 5.46 0 0 1-1.61.9 5.62 5.62 0 0 1-1.87.34 4.38 4.38 0 0 1-2.93-.81 2.6 2.6 0 0 1-1.02-2.17 3.17 3.17 0 0 1 1.07-2.37 5.37 5.37 0 0 1 3.73-1.06c.34 0 .76 0 1.23.04a13.35 13.35 0 0 1 1.36.08c.51.04 1.06.04 1.61.09Zm4.58-10.1a6.85 6.85 0 0 0-1.87-2.5 9.1 9.1 0 0 0-2.89-1.62 11.73 11.73 0 0 0-3.77-.59 19.85 19.85 0 0 0-3.4.26c-.38.08-.76.12-1.1.2v4.72a.04.04 0 0 0 .03-.01.04.04 0 0 0 .01-.03 9.98 9.98 0 0 1 3.74-.6 5.64 5.64 0 0 1 3.4.93 3.06 3.06 0 0 1 1.3 2.55v.5c-.6-.03-1.14-.03-1.7-.08-.5-.04-1-.04-1.52-.08-.51 0-1.02-.05-1.45-.05a14.03 14.03 0 0 0-3.9.51 8.42 8.42 0 0 0-3 1.53 6.91 6.91 0 0 0-1.96 2.46 7.58 7.58 0 0 0-.68 3.31 6.7 6.7 0 0 0 .68 3.14 6.5 6.5 0 0 0 1.78 2.2 6.64 6.64 0 0 0 2.42 1.28 8.4 8.4 0 0 0 2.67.42 9.52 9.52 0 0 0 4.03-.85 7.12 7.12 0 0 0 2.68-1.9v2.75h5.26V15.28a10.9 10.9 0 0 0-.76-3.18Zm-59.2 10.1a2.9 2.9 0 0 1-.42 1.56 4.84 4.84 0 0 1-1.15 1.32 5.46 5.46 0 0 1-1.61.9 5.62 5.62 0 0 1-1.87.33 4.38 4.38 0 0 1-2.92-.8 2.6 2.6 0 0 1-1.02-2.17 3.17 3.17 0 0 1 1.06-2.37 5.37 5.37 0 0 1 3.74-1.07c.34 0 .76 0 1.23.04a13.36 13.36 0 0 1 1.35.09c.52.04 1.07.04 1.62.08Zm4.58-10.1a6.85 6.85 0 0 0-1.86-2.5 9.11 9.11 0 0 0-2.88-1.62 11.75 11.75 0 0 0-3.78-.6c-.5 0-.98 0-1.44.04l1.4 2.3-1.4 2.2h.72a5.64 5.64 0 0 1 3.4.94 3.07 3.07 0 0 1 1.3 2.54v.51c-.6-.04-1.14-.04-1.7-.08-.5-.04-1.01-.04-1.52-.09-.51 0-1.02-.04-1.44-.04a14.03 14.03 0 0 0-3.9.51 8.42 8.42 0 0 0-3.02 1.53A6.91 6.91 0 0 0 .77 20.2a7.67 7.67 0 0 0-.08 6.5 6.34 6.34 0 0 0 1.74 2.2 6.64 6.64 0 0 0 2.42 1.27 8.4 8.4 0 0 0 2.67.43 9.52 9.52 0 0 0 4.03-.85 7.12 7.12 0 0 0 2.67-1.9v2.75h5.26V15.28a7.88 7.88 0 0 0-.64-3.19Z" fill="#0660FF"></path><path d="M7.3 12H3.45V7.48h3.87l1.56 2.25Z" fill="#00caf9"></path></svg>