<svg width="46" height="46" viewBox="0 0 46 46" fill="none" xmlns="http://www.w3.org/2000/svg"><path fill-rule="evenodd" clip-rule="evenodd" d="M17.6459 12.5785C20.0986 10.4223 23.315 9.10156 26.8369 9.10156C34.5096 9.10156 40.7357 15.3277 40.7357 23.0004C40.7357 30.673 34.5006 36.8992 26.8369 36.8992C23.315 36.8992 20.0986 35.5875 17.6459 33.4223C17.0529 32.9012 16.1455 32.9551 15.6154 33.548C15.0943 34.141 15.1482 35.0484 15.7412 35.5785C18.6971 38.193 22.5783 39.7742 26.8279 39.7742C36.0818 39.7742 43.6017 32.2633 43.6017 23.0004C43.6017 13.7375 36.0908 6.22656 26.8369 6.22656C22.5873 6.22656 18.706 7.80781 15.7502 10.4223C15.1572 10.9434 15.0943 11.8598 15.6244 12.4527C16.1455 13.0457 17.0529 13.0996 17.6459 12.5785Z" fill="white"></path><path fill-rule="evenodd" clip-rule="evenodd" d="M24.625 14.5645V22.2281C24.625 22.6055 24.7777 22.9738 25.0473 23.2434L31.1836 29.3797C31.7406 29.9457 32.657 29.9457 33.2141 29.3797C33.7801 28.8227 33.7801 27.9062 33.2141 27.3492L27.5 21.6352V14.5645C27.5 13.7738 26.8531 13.127 26.0625 13.127C25.2719 13.127 24.625 13.7738 24.625 14.5645Z" fill="white"></path><path fill-rule="evenodd" clip-rule="evenodd" d="M3.83594 17.7266H15.3359C16.1266 17.7266 16.7734 17.0797 16.7734 16.2891C16.7734 15.4984 16.1266 14.8516 15.3359 14.8516H3.83594C3.04531 14.8516 2.39844 15.4984 2.39844 16.2891C2.39844 17.0887 3.03633 17.7266 3.83594 17.7266Z" fill="white"></path><path fill-rule="evenodd" clip-rule="evenodd" d="M5.75 24.4375H17.25C18.0406 24.4375 18.6875 23.7906 18.6875 23C18.6875 22.2094 18.0406 21.5625 17.25 21.5625H5.75C4.95937 21.5625 4.3125 22.2094 4.3125 23C4.3125 23.7906 4.95937 24.4375 5.75 24.4375Z" fill="white"></path><path fill-rule="evenodd" clip-rule="evenodd" d="M7.66406 31.1484H19.1641C19.9547 31.1484 20.6016 30.5016 20.6016 29.7109C20.6016 28.9203 19.9547 28.2734 19.1641 28.2734H7.66406C6.87344 28.2734 6.22656 28.9203 6.22656 29.7109C6.22656 30.5016 6.87344 31.1484 7.66406 31.1484Z" fill="white"></path></svg>