<svg width="42" height="42" viewBox="0 0 42 42" fill="none" xmlns="http://www.w3.org/2000/svg"><g clip-path="url(#clip0_14074_144970)"><path d="M32.935 15.857C32.7135 15.4141 32.2623 15.1352 31.7619 15.1352H24.4201L31.9178 1.96094C32.1475 1.55078 32.1475 1.05859 31.9096 0.648438C31.6717 0.246484 31.2451 -0.0078125 30.7776 -0.0078125H18.719C18.194 -0.0078125 17.7182 0.303906 17.5131 0.796094L9.02287 20.8609C8.8506 21.2629 8.89162 21.7305 9.13771 22.0996C9.38381 22.4688 9.79396 22.6902 10.2287 22.6902H18.9404L12.5666 40.2449C12.3451 40.8602 12.6076 41.541 13.1819 41.8527C13.3787 41.9594 13.592 42.0086 13.8053 42.0086C14.2072 42.0086 14.6092 41.8199 14.8635 41.4754L32.8283 17.2352C33.1154 16.8332 33.1647 16.3 32.935 15.857ZM18.1037 32.6734L22.0412 21.8207C22.1889 21.4188 22.1315 20.9676 21.8854 20.623C21.6393 20.2703 21.2373 20.0652 20.8108 20.0652H12.2139L19.5967 2.63359H28.5299L21.0322 15.8078C20.8026 16.218 20.8026 16.7102 21.0404 17.1203C21.2783 17.5223 21.7049 17.7766 22.1725 17.7766H29.1615L18.1037 32.6734Z" fill="white"></path></g><defs><clipPath id="clip0_14074_144970"><rect width="42" height="42" fill="white"></rect></clipPath></defs></svg>